<?xml version="1.0" encoding="UTF-8" standalone="no"?>
<!-- Created with Inkscape (http://www.inkscape.org/) -->

<svg
   version="1.1"
   id="svg2"
   width="1344"
   height="1344"
   viewBox="0 0 1344 1344"
   sodipodi:docname="aiae.ai"
   xmlns:inkscape="http://www.inkscape.org/namespaces/inkscape"
   xmlns:sodipodi="http://sodipodi.sourceforge.net/DTD/sodipodi-0.dtd"
   xmlns="http://www.w3.org/2000/svg"
   xmlns:svg="http://www.w3.org/2000/svg">
  <defs
     id="defs6">
    <clipPath
       clipPathUnits="userSpaceOnUse"
       id="clipPath16">
      <path
         d="M 0,1008 H 1008 V 0 H 0 Z"
         id="path14" />
    </clipPath>
  </defs>
  <sodipodi:namedview
     id="namedview4"
     pagecolor="#ffffff"
     bordercolor="#000000"
     borderopacity="0.25"
     inkscape:showpageshadow="2"
     inkscape:pageopacity="0.0"
     inkscape:pagecheckerboard="0"
     inkscape:deskcolor="#d1d1d1" />
  <g
     id="g8"
     inkscape:groupmode="layer"
     inkscape:label="aiae"
     transform="matrix(1.3333333,0,0,-1.3333333,0,1344)">
    <g
       id="g10">
      <g
         id="g12"
         clip-path="url(#clipPath16)">
        <g
           id="g18"
           transform="translate(437.2867,387.1876)">
          <path
             d="m 0,0 h -4.406 c -7.985,0 -14.458,6.473 -14.458,14.458 v 132.173 c 0,7.985 6.473,14.458 14.458,14.458 H 0 c 7.985,0 14.458,-6.473 14.458,-14.458 V 14.458 C 14.458,6.473 7.985,0 0,0"
             style="fill:#ffffff;fill-opacity:1;fill-rule:nonzero;stroke:none"
             id="path20" />
        </g>
        <g
           id="g22"
           transform="translate(437.2867,387.1876)">
          <path
             d="m 0,0 h -4.406 c -7.985,0 -14.458,6.473 -14.458,14.458 v 132.173 c 0,7.985 6.473,14.458 14.458,14.458 H 0 c 7.985,0 14.458,-6.473 14.458,-14.458 V 14.458 C 14.458,6.473 7.985,0 0,0 Z"
             style="fill:none;stroke:#231f20;stroke-width:1;stroke-linecap:butt;stroke-linejoin:miter;stroke-miterlimit:10;stroke-dasharray:none;stroke-opacity:1"
             id="path24" />
        </g>
        <g
           id="g26"
           transform="translate(391.3425,387.1876)">
          <path
             d="m 0,0 h -4.406 c -7.985,0 -14.458,6.473 -14.458,14.458 v 64.433 c 0,7.985 6.473,14.458 14.458,14.458 H 0 c 7.985,0 14.458,-6.473 14.458,-14.458 V 14.458 C 14.458,6.473 7.985,0 0,0"
             style="fill:#ffffff;fill-opacity:1;fill-rule:nonzero;stroke:none"
             id="path28" />
        </g>
        <g
           id="g30"
           transform="translate(391.3425,387.1876)">
          <path
             d="m 0,0 h -4.406 c -7.985,0 -14.458,6.473 -14.458,14.458 v 64.433 c 0,7.985 6.473,14.458 14.458,14.458 H 0 c 7.985,0 14.458,-6.473 14.458,-14.458 V 14.458 C 14.458,6.473 7.985,0 0,0 Z"
             style="fill:none;stroke:#231f20;stroke-width:1;stroke-linecap:butt;stroke-linejoin:miter;stroke-miterlimit:10;stroke-dasharray:none;stroke-opacity:1"
             id="path32" />
        </g>
        <g
           id="g34"
           transform="translate(483.231,387.1876)">
          <path
             d="m 0,0 h -4.406 c -7.985,0 -14.458,6.473 -14.458,14.458 v 102.556 c 0,7.985 6.473,14.458 14.458,14.458 H 0 c 7.985,0 14.458,-6.473 14.458,-14.458 V 14.458 C 14.458,6.473 7.985,0 0,0"
             style="fill:#ffffff;fill-opacity:1;fill-rule:nonzero;stroke:none"
             id="path36" />
        </g>
        <g
           id="g38"
           transform="translate(483.231,387.1876)">
          <path
             d="m 0,0 h -4.406 c -7.985,0 -14.458,6.473 -14.458,14.458 v 102.556 c 0,7.985 6.473,14.458 14.458,14.458 H 0 c 7.985,0 14.458,-6.473 14.458,-14.458 V 14.458 C 14.458,6.473 7.985,0 0,0 Z"
             style="fill:none;stroke:#231f20;stroke-width:1;stroke-linecap:butt;stroke-linejoin:miter;stroke-miterlimit:10;stroke-dasharray:none;stroke-opacity:1"
             id="path40" />
        </g>
        <g
           id="g42"
           transform="translate(529.1753,387.1876)">
          <path
             d="m 0,0 h -4.406 c -7.985,0 -14.458,6.473 -14.458,14.458 v 217.96 c 0,7.985 6.473,14.458 14.458,14.458 H 0 c 7.985,0 14.458,-6.473 14.458,-14.458 V 14.458 C 14.458,6.473 7.985,0 0,0"
             style="fill:#ffffff;fill-opacity:1;fill-rule:nonzero;stroke:none"
             id="path44" />
        </g>
        <g
           id="g46"
           transform="translate(529.1753,387.1876)">
          <path
             d="m 0,0 h -4.406 c -7.985,0 -14.458,6.473 -14.458,14.458 v 217.96 c 0,7.985 6.473,14.458 14.458,14.458 H 0 c 7.985,0 14.458,-6.473 14.458,-14.458 V 14.458 C 14.458,6.473 7.985,0 0,0 Z"
             style="fill:none;stroke:#231f20;stroke-width:1;stroke-linecap:butt;stroke-linejoin:miter;stroke-miterlimit:10;stroke-dasharray:none;stroke-opacity:1"
             id="path48" />
        </g>
        <g
           id="g50"
           transform="translate(575.1195,385.6738)">
          <path
             d="m 0,0 h -4.406 c -7.985,0 -14.458,6.473 -14.458,14.458 v 147.985 c 0,7.985 6.473,14.458 14.458,14.458 H 0 c 7.985,0 14.458,-6.473 14.458,-14.458 V 14.458 C 14.458,6.473 7.985,0 0,0"
             style="fill:#ffffff;fill-opacity:1;fill-rule:nonzero;stroke:none"
             id="path52" />
        </g>
        <g
           id="g54"
           transform="translate(575.1195,385.6738)">
          <path
             d="m 0,0 h -4.406 c -7.985,0 -14.458,6.473 -14.458,14.458 v 147.985 c 0,7.985 6.473,14.458 14.458,14.458 H 0 c 7.985,0 14.458,-6.473 14.458,-14.458 V 14.458 C 14.458,6.473 7.985,0 0,0 Z"
             style="fill:none;stroke:#231f20;stroke-width:1;stroke-linecap:butt;stroke-linejoin:miter;stroke-miterlimit:10;stroke-dasharray:none;stroke-opacity:1"
             id="path56" />
        </g>
        <g
           id="g58"
           transform="translate(621.0638,387.1876)">
          <path
             d="m 0,0 h -4.406 c -7.985,0 -14.458,6.473 -14.458,14.458 v 231.237 c 0,7.985 6.473,14.458 14.458,14.458 H 0 c 7.985,0 14.458,-6.473 14.458,-14.458 V 14.458 C 14.458,6.473 7.985,0 0,0"
             style="fill:#ffffff;fill-opacity:1;fill-rule:nonzero;stroke:none"
             id="path60" />
        </g>
        <g
           id="g62"
           transform="translate(621.0638,387.1876)">
          <path
             d="m 0,0 h -4.406 c -7.985,0 -14.458,6.473 -14.458,14.458 v 231.237 c 0,7.985 6.473,14.458 14.458,14.458 H 0 c 7.985,0 14.458,-6.473 14.458,-14.458 V 14.458 C 14.458,6.473 7.985,0 0,0 Z"
             style="fill:none;stroke:#231f20;stroke-width:1;stroke-linecap:butt;stroke-linejoin:miter;stroke-miterlimit:10;stroke-dasharray:none;stroke-opacity:1"
             id="path64" />
        </g>
      </g>
    </g>
  </g>
</svg>
